REM DIRINDEX 1\2,1\3,1\4,1\5
REM DIRNAME folder01,folder02,folder03,folder04,folder05
TITLE ""
FILE "P1Q_t_0862-0871.mp3" MP3
  TRACK 01 AUDIO
    TITLE "3:cjc005_3490"
    INDEX 01 00:00:00
  TRACK 02 AUDIO
    TITLE "0:"
    INDEX 01 00:01:03
  TRACK 03 AUDIO
    TITLE "4:cjc005_3491"
    INDEX 01 00:01:32
  TRACK 04 AUDIO
    TITLE "0:"
    INDEX 01 00:02:45
  TRACK 05 AUDIO
    TITLE "5:cjc005_3492"
    INDEX 01 00:02:65
  TRACK 06 AUDIO
    TITLE "0:"
    INDEX 01 00:06:26
  TRACK 07 AUDIO
    TITLE "3:cjc005_3493"
    INDEX 01 00:07:03
  TRACK 08 AUDIO
    TITLE "0:"
    INDEX 01 00:08:32
  TRACK 09 AUDIO
    TITLE "4:cjc005_3494"
    INDEX 01 00:08:64
  TRACK 10 AUDIO
    TITLE "0:"
    INDEX 01 00:10:02
  TRACK 11 AUDIO
    TITLE "5:cjc005_3495"
    INDEX 01 00:10:25
  TRACK 12 AUDIO
    TITLE "0:"
    INDEX 01 00:14:13
  TRACK 13 AUDIO
    TITLE "3:cjc005_3496"
    INDEX 01 00:14:62
  TRACK 14 AUDIO
    TITLE "0:"
    INDEX 01 00:15:60
  TRACK 15 AUDIO
    TITLE "4:cjc005_3497"
    INDEX 01 00:16:16
  TRACK 16 AUDIO
    TITLE "0:"
    INDEX 01 00:17:33
  TRACK 17 AUDIO
    TITLE "5:cjc005_3498"
    INDEX 01 00:17:55
  TRACK 18 AUDIO
    TITLE "0:"
    INDEX 01 00:21:06
  TRACK 19 AUDIO
    TITLE "3:cjc005_3499"
    INDEX 01 00:21:64
  TRACK 20 AUDIO
    TITLE "0:"
    INDEX 01 00:22:62
  TRACK 21 AUDIO
    TITLE "4:cjc005_3500"
    INDEX 01 00:23:14
  TRACK 22 AUDIO
    TITLE "0:"
    INDEX 01 00:24:18
  TRACK 23 AUDIO
    TITLE "5:cjc005_3501"
    INDEX 01 00:24:39
  TRACK 24 AUDIO
    TITLE "0:"
    INDEX 01 00:27:10
  TRACK 25 AUDIO
    TITLE "3:cjc005_3502"
    INDEX 01 00:27:65
  TRACK 26 AUDIO
    TITLE "0:"
    INDEX 01 00:29:19
  TRACK 27 AUDIO
    TITLE "4:cjc005_3503"
    INDEX 01 00:29:44
  TRACK 28 AUDIO
    TITLE "0:"
    INDEX 01 00:31:18
  TRACK 29 AUDIO
    TITLE "5:cjc005_3504"
    INDEX 01 00:31:41
  TRACK 30 AUDIO
    TITLE "0:"
    INDEX 01 00:35:59
  TRACK 31 AUDIO
    TITLE "3:cjc005_3505"
    INDEX 01 00:36:40
  TRACK 32 AUDIO
    TITLE "0:"
    INDEX 01 00:37:57
  TRACK 33 AUDIO
    TITLE "4:cjc005_3506"
    INDEX 01 00:38:10
  TRACK 34 AUDIO
    TITLE "0:"
    INDEX 01 00:39:13
  TRACK 35 AUDIO
    TITLE "5:cjc005_3507"
    INDEX 01 00:39:41
  TRACK 36 AUDIO
    TITLE "0:"
    INDEX 01 00:43:50
  TRACK 37 AUDIO
    TITLE "3:cjc005_3508"
    INDEX 01 00:44:30
  TRACK 38 AUDIO
    TITLE "0:"
    INDEX 01 00:45:35
  TRACK 39 AUDIO
    TITLE "4:cjc005_3509"
    INDEX 01 00:45:63
  TRACK 40 AUDIO
    TITLE "0:"
    INDEX 01 00:46:62
  TRACK 41 AUDIO
    TITLE "5:cjc005_3510"
    INDEX 01 00:47:05
  TRACK 42 AUDIO
    TITLE "0:"
    INDEX 01 00:51:58
  TRACK 43 AUDIO
    TITLE "3:cjc005_3511"
    INDEX 01 00:52:36
  TRACK 44 AUDIO
    TITLE "0:"
    INDEX 01 00:53:49
  TRACK 45 AUDIO
    TITLE "4:cjc005_3512"
    INDEX 01 00:54:01
  TRACK 46 AUDIO
    TITLE "0:"
    INDEX 01 00:55:63
  TRACK 47 AUDIO
    TITLE "5:cjc005_3513"
    INDEX 01 00:56:10
  TRACK 48 AUDIO
    TITLE "0:"
    INDEX 01 01:02:14
  TRACK 49 AUDIO
    TITLE "3:cjc005_3514"
    INDEX 01 01:02:69
  TRACK 50 AUDIO
    TITLE "0:"
    INDEX 01 01:04:21
  TRACK 51 AUDIO
    TITLE "4:cjc005_3515"
    INDEX 01 01:04:45
  TRACK 52 AUDIO
    TITLE "0:"
    INDEX 01 01:05:64
  TRACK 53 AUDIO
    TITLE "5:cjc005_3516"
    INDEX 01 01:06:10
  TRACK 54 AUDIO
    TITLE "0:"
    INDEX 01 01:10:65
  TRACK 55 AUDIO
    TITLE "3:cjc005_3517"
    INDEX 01 01:11:45
  TRACK 56 AUDIO
    TITLE "0:"
    INDEX 01 01:12:48
  TRACK 57 AUDIO
    TITLE "4:cjc005_3518"
    INDEX 01 01:13:00
  TRACK 58 AUDIO
    TITLE "0:"
    INDEX 01 01:14:06
  TRACK 59 AUDIO
    TITLE "5:cjc005_3519"
    INDEX 01 01:14:27
  TRACK 60 AUDIO
    TITLE "0:"
    INDEX 01 01:18:21
